<?xml version="1.0" encoding="UTF-8" standalone="no"?>
<svg
   xmlns:dc="http://purl.org/dc/elements/1.1/"
   xmlns:cc="http://creativecommons.org/ns#"
   xmlns:rdf="http://www.w3.org/1999/02/22-rdf-syntax-ns#"
   xmlns:svg="http://www.w3.org/2000/svg"
   xmlns="http://www.w3.org/2000/svg"
   version="1.1"
   id="svg2"
   viewBox="0 0 24 24.000001"
   height="24"
   width="24">
  <defs
     id="defs4" />
  <metadata
     id="metadata7">
    <rdf:RDF>
      <cc:Work
         rdf:about="">
        <dc:format>image/svg+xml</dc:format>
        <dc:type
           rdf:resource="http://purl.org/dc/dcmitype/StillImage" />
        <dc:title></dc:title>
      </cc:Work>
    </rdf:RDF>
  </metadata>
  <g
     style="display:inline"
     transform="translate(0,-1028.3621)"
     id="layer1">
    <circle
       r="3.6828358"
       cy="1046.2996"
       cx="6.0624986"
       id="path3404"
       style="fill:#ffe6d5" />
  </g>
  <g
     style="display:inline;opacity:1"
     id="layer3">
    <path
       id="path3406"
       d="M 6.0625 8.1425781 A 9.794775 9.794775 0 0 0 1.8554688 9.1054688 L 1.8554688 12.189453 A 7.1305959 7.1305959 0 0 1 6.0625 10.806641 A 7.1305959 7.1305959 0 0 1 13.193359 17.9375 A 7.1305959 7.1305959 0 0 1 11.943359 21.966797 L 14.976562 21.966797 A 9.794775 9.794775 0 0 0 15.857422 17.9375 A 9.794775 9.794775 0 0 0 6.0625 8.1425781 z "
       style="fill:#ffe6d5" />
  </g>
  <g
     style="opacity:1"
     id="layer6">
    <path
       id="path3421"
       d="M 6.0625 2.1875 A 15.749998 15.749998 0 0 0 1.8554688 2.7773438 L 1.8554688 5.4804688 A 13.164177 13.164177 0 0 1 6.0625 4.7734375 A 13.164177 13.164177 0 0 1 19.226562 17.9375 A 13.164177 13.164177 0 0 1 18.587891 21.966797 L 21.279297 21.966797 A 15.749998 15.749998 0 0 0 21.8125 17.9375 A 15.749998 15.749998 0 0 0 6.0625 2.1875 z "
       style="fill:#ffe6d5" />
  </g>
  <g
     style="opacity:0.43"
     id="layer5" />
</svg>
