<?xml version="1.0" encoding="UTF-8" standalone="no"?>
<!-- Created with Inkscape (http://www.inkscape.org/) -->

<svg
   xmlns:dc="http://purl.org/dc/elements/1.1/"
   xmlns:cc="http://creativecommons.org/ns#"
   xmlns:rdf="http://www.w3.org/1999/02/22-rdf-syntax-ns#"
   xmlns:svg="http://www.w3.org/2000/svg"
   xmlns="http://www.w3.org/2000/svg"
   xmlns:sodipodi="http://sodipodi.sourceforge.net/DTD/sodipodi-0.dtd"
   xmlns:inkscape="http://www.inkscape.org/namespaces/inkscape"
   width="167mm"
   height="167mm"
   viewBox="0 0 591.73228 591.73228"
   id="svg2"
   version="1.1"
   inkscape:version="0.91 r13725"
   inkscape:export-filename="C:\Users\ZackMercury\Desktop\RSS-reader\dist\icons\apple-icon-180x180.png"
   inkscape:export-xdpi="27.377245"
   inkscape:export-ydpi="27.377245"
   sodipodi:docname="Inkscape Icon.svg">
  <defs
     id="defs4" />
  <sodipodi:namedview
     id="base"
     pagecolor="#ffffff"
     bordercolor="#666666"
     borderopacity="1.0"
     inkscape:pageopacity="0.0"
     inkscape:pageshadow="2"
     inkscape:zoom="0.49497475"
     inkscape:cx="52.021021"
     inkscape:cy="236.92098"
     inkscape:document-units="px"
     inkscape:current-layer="layer1"
     showgrid="false"
     width="167mm"
     showguides="true"
     inkscape:guide-bbox="true"
     inkscape:window-width="1440"
     inkscape:window-height="837"
     inkscape:window-x="-8"
     inkscape:window-y="-8"
     inkscape:window-maximized="1">
    <sodipodi:guide
       position="35.355338,157.58379"
       orientation="0,1"
       id="guide4142" />
    <sodipodi:guide
       position="158.59394,121.2183"
       orientation="1,0"
       id="guide4144" />
    <sodipodi:guide
       position="96.974641,357.59399"
       orientation="1,0"
       id="guide4178" />
    <sodipodi:guide
       position="417.19299,97.984794"
       orientation="0,1"
       id="guide4180" />
  </sodipodi:namedview>
  <metadata
     id="metadata7">
    <rdf:RDF>
      <cc:Work
         rdf:about="">
        <dc:format>image/svg+xml</dc:format>
        <dc:type
           rdf:resource="http://purl.org/dc/dcmitype/StillImage" />
        <dc:title></dc:title>
      </cc:Work>
    </rdf:RDF>
  </metadata>
  <g
     inkscape:label="Layer 1"
     inkscape:groupmode="layer"
     id="layer1"
     transform="translate(0,-460.62992)"
     style="opacity:1">
    <rect
       style="fill:#18a751;fill-opacity:1"
       id="rect3338"
       width="511.13718"
       height="511.13718"
       x="40.406105"
       y="500.81894"
       rx="60"
       ry="60" />
    <circle
       style="fill:#ffffff;fill-opacity:1"
       id="path4148"
       cx="158.59395"
       cy="894.77844"
       r="57.578697" />
  </g>
  <g
     inkscape:groupmode="layer"
     id="layer2"
     inkscape:label="Layer 2"
     style="opacity:1">
    <path
       style="fill:#ffffff;fill-opacity:1"
       d="m 152.85388,238.79205 a 198.78413,200.45409 0 0 0 -55.879271,8.21593 l 0,64.82893 a 138.32445,139.48649 0 0 1 55.879271,-12.0774 138.32445,139.48649 0 0 1 138.32458,139.48665 138.32445,139.48649 0 0 1 -11.00793,54.50189 l 63.93286,0 a 198.78413,200.45409 0 0 0 7.53464,-54.50189 198.78413,200.45409 0 0 0 -198.78415,-200.45411 z"
       id="path4160"
       inkscape:connector-curvature="0"
       inkscape:transform-center-y="-64.534627"
       inkscape:transform-center-x="-61.866875" />
  </g>
  <g
     inkscape:groupmode="layer"
     id="layer4"
     inkscape:label="Layer 4"
     style="display:inline;opacity:1">
    <path
       style="fill:#ffffff;fill-opacity:1"
       d="m 160.92529,105.84928 a 323.94776,325.70832 0 0 0 -63.950681,6.43206 l 0,62.89199 a 263.14202,264.57212 0 0 1 63.950681,-8.18886 263.14202,264.57212 0 0 1 263.14258,264.57268 263.14202,264.57212 0 0 1 -7.69054,62.1909 l 62.25811,0 a 323.94776,325.70832 0 0 0 6.23717,-62.1909 323.94776,325.70832 0 0 0 -323.94732,-325.70787 z"
       id="path4191"
       inkscape:connector-curvature="0"
       inkscape:transform-center-x="-129.99845"
       inkscape:transform-center-y="-131.75904" />
  </g>
  <g
     inkscape:groupmode="layer"
     id="layer5"
     inkscape:label="Layer 5" />
</svg>
